<svg xmlns="http://www.w3.org/2000/svg" viewBox="0 0 24 24" fill="#fff">
  <path d="M12 .297C5.37.297 0 5.665 0 12.297c0 5.3 3.438 9.8 8.207 11.387.6.113.793-.258.793-.577v-2.04c-3.338.725-4.043-1.416-4.043-1.416-.546-1.386-1.333-1.754-1.333-1.754-1.09-.745.083-.73.083-.73 1.205.086 1.84 1.238 1.84 1.238 1.07 1.834 2.807 1.304 3.492.997.108-.775.42-1.305.763-1.605-2.665-.305-5.466-1.332-5.466-5.93 0-1.31.467-2.38 1.235-3.22-.123-.303-.535-1.526.117-3.176 0 0 1.007-.322 3.3 1.23a11.48 11.48 0 016.004 0c2.29-1.554 3.297-1.23 3.297-1.23.653 1.65.24 2.873.118 3.176.77.84 1.232 1.91 1.232 3.22 0 4.61-2.806 5.62-5.478 5.92.431.372.815 1.106.815 2.23v3.306c0 .322.192.694.8.576C20.565 22.09 24 17.597 24 12.297 24 5.665 18.627.297 12 .297z"/>
</svg>
